<mxfile host="app.diagrams.net" modified="2022-02-22T12:36:20.411Z" agent="5.0 (Macintosh)" etag="YLnixRr5efFGr_Dsmjcd" version="16.6.2" type="github">
  <diagram id="Fz2pEjtqNTdtGRBQMziY" name="Page-1">
    <mxGraphModel dx="1651" dy="646" grid="1" gridSize="10" guides="1" tooltips="1" connect="1" arrows="1" fold="1" page="0" pageScale="1" pageWidth="827" pageHeight="1169" math="0" shadow="0">
      <root>
        <mxCell id="0" />
        <mxCell id="1" parent="0" />
        <mxCell id="ohLFZsM4meblpCoX3Q22-1" value="" style="shape=image;verticalLabelPosition=bottom;labelBackgroundColor=default;verticalAlign=top;aspect=fixed;imageAspect=0;image=https://payload.cargocollective.com/1/4/137851/3249767/pruebas comp. 1.jpg;" vertex="1" parent="1">
          <mxGeometry x="-800" y="170" width="520" height="390" as="geometry" />
        </mxCell>
        <mxCell id="ohLFZsM4meblpCoX3Q22-3" value="&lt;div align=&quot;left&quot;&gt;https://iohanna.com/Bread-Lab&lt;/div&gt;&lt;div align=&quot;left&quot;&gt;Iohanna Nicenboim&lt;/div&gt;&lt;div align=&quot;left&quot;&gt;Bread Lab 2013&lt;/div&gt;&lt;div align=&quot;left&quot;&gt;Food installation&lt;br&gt;&lt;/div&gt;" style="text;html=1;resizable=0;autosize=1;align=left;verticalAlign=middle;points=[];fillColor=none;strokeColor=none;rounded=0;" vertex="1" parent="1">
          <mxGeometry x="-800" y="570" width="180" height="60" as="geometry" />
        </mxCell>
        <mxCell id="ohLFZsM4meblpCoX3Q22-5" value="" style="shape=image;verticalLabelPosition=bottom;labelBackgroundColor=default;verticalAlign=top;aspect=fixed;imageAspect=0;image=http://interspecifics.cc/work/wp-content/uploads/2017/11/ce_img_0028-1024x576.png;" vertex="1" parent="1">
          <mxGeometry x="30" y="280" width="520" height="293" as="geometry" />
        </mxCell>
        <mxCell id="ohLFZsM4meblpCoX3Q22-6" value="&lt;div align=&quot;left&quot;&gt;http://interspecifics.cc/work/speculative-communications-2017/&lt;/div&gt;&lt;div align=&quot;left&quot;&gt;Interspecifics&lt;/div&gt;&lt;div align=&quot;left&quot;&gt;Speculative Communications&lt;br&gt;&lt;/div&gt;&lt;div align=&quot;left&quot;&gt;&lt;div&gt;2017&lt;/div&gt;&lt;div&gt;artificial intelligence&lt;/div&gt;&lt;/div&gt;" style="text;html=1;resizable=0;autosize=1;align=left;verticalAlign=middle;points=[];fillColor=none;strokeColor=none;rounded=0;" vertex="1" parent="1">
          <mxGeometry x="30" y="580" width="350" height="80" as="geometry" />
        </mxCell>
        <mxCell id="ohLFZsM4meblpCoX3Q22-7" value="&lt;div align=&quot;left&quot;&gt;&lt;h1&gt;References I came across during my exchange in Artez&lt;/h1&gt;&lt;/div&gt;&lt;div align=&quot;left&quot;&gt;&lt;h1&gt;02.07.2022 to&lt;/h1&gt;&lt;/div&gt;" style="text;html=1;resizable=0;autosize=1;align=left;verticalAlign=middle;points=[];fillColor=none;strokeColor=none;rounded=0;" vertex="1" parent="1">
          <mxGeometry x="-800" y="20" width="650" height="80" as="geometry" />
        </mxCell>
        <mxCell id="ohLFZsM4meblpCoX3Q22-8" value="" style="shape=image;verticalLabelPosition=bottom;labelBackgroundColor=default;verticalAlign=top;aspect=fixed;imageAspect=0;image=https://rlfbckr.io/images/photosextended/rechnender-raum/Rechnender Raum trinitatiskirche koeln.jpg;" vertex="1" parent="1">
          <mxGeometry x="-530" y="720" width="390" height="520" as="geometry" />
        </mxCell>
      </root>
    </mxGraphModel>
  </diagram>
</mxfile>
